<svg width="320" height="320" viewBox="0 0 320 320" fill="none" xmlns="http://www.w3.org/2000/svg">
<rect width="320" height="320" fill="#F2F6FC"/>
<g opacity="0.6">
<path d="M180.989 135.457H138.915C135.139 135.457 132 138.596 132 142.469V177.531C132 181.404 135.139 184.543 138.914 184.543H180.988C184.861 184.543 188 181.404 188 177.531V142.469C188.001 138.596 184.955 135.457 180.989 135.457ZM144.174 142.469C147.079 142.469 149.433 144.824 149.433 147.728C149.433 150.633 147.176 152.988 144.174 152.988C141.172 152.988 138.915 150.633 138.915 147.728C138.915 144.824 141.367 142.469 144.174 142.469ZM180.879 176.61C180.572 177.18 179.981 177.531 179.334 177.531H140.987C140.327 177.531 139.723 177.161 139.424 176.572C139.125 175.984 139.182 175.278 139.57 174.745L147.24 164.226C147.571 163.769 148.096 163.506 148.655 163.506C149.214 163.506 149.742 163.774 150.072 164.226L153.629 169.103L163.851 153.862C164.181 153.284 164.729 152.988 165.31 152.988C165.89 152.988 166.444 153.28 166.768 153.768L180.793 174.805C181.153 175.339 181.186 176.03 180.879 176.61Z" fill="#2F6DD5"/>
</g>
</svg>
