<?xml version="1.0" encoding="utf-8"?>
<!-- Generator: Adobe Illustrator 27.3.1, SVG Export Plug-In . SVG Version: 6.00 Build 0)  -->
<svg version="1.1" id="Layer_1" xmlns="http://www.w3.org/2000/svg" xmlns:xlink="http://www.w3.org/1999/xlink" x="0px" y="0px"
	 viewBox="0 0 432.5 284.6" style="enable-background:new 0 0 432.5 284.6;" xml:space="preserve">
<style type="text/css">
	.st0{opacity:0.9884;fill:#D9E4F7;enable-background:new    ;}
	.st1{fill:none;stroke:#598BDE;stroke-width:0.5;stroke-linecap:round;stroke-linejoin:round;stroke-miterlimit:10;}
	.st2{fill:#FFFEFF;}
	.st3{fill:none;stroke:#002460;stroke-width:0.5;stroke-linecap:round;stroke-linejoin:round;stroke-miterlimit:10;}
	.st4{fill:#FFFEFF;stroke:#002460;stroke-width:0.5;stroke-linecap:round;stroke-linejoin:round;stroke-miterlimit:10;}
	.st5{fill:#002460;stroke:#002460;stroke-width:0.5;stroke-linecap:round;stroke-linejoin:round;stroke-miterlimit:10;}
	.st6{fill:#F2F6FC;}
	.st7{fill:none;stroke:#FFFEFF;stroke-width:0.5;stroke-linecap:round;stroke-linejoin:round;stroke-miterlimit:10;}
</style>
<g>
	<g>
		<path class="st0" d="M73.5,32.2H388c21.4,0,38.8,17.3,38.8,38.8v101.7c0,21.4-17.3,38.8-38.8,38.8H73.5
			c-21.4,0-38.8-17.3-38.8-38.8V70.9C34.8,49.5,52.2,32.2,73.5,32.2z"/>
		<path class="st1" d="M53.2,283.1c-7.9-9-1.8-18.6,1.2-27.8c-2-12.6-4.8-18.5,3.6-30c-1-20.3,7.9-18.7,9.9-38.5
			c2.2-21.6,29.9-35.6,47.9-21.3c7.8,6.3,10,16.5,13,25.6c6,2.2,11.2,5.8,14.1,12.3c4.1,9.1-6.6,23,6.1,25"/>
		<path class="st1" d="M81.5,283.8c-4.8-10.6-1.3-26.9,7.2-34.6c6.7-6.1,17.4-3.5,26.2-5.4c17.2-3.8,30.9-19.1,49.9-18
			c26.3,1.5,23.5,18.4,34.5,35.9c5.1,8.1,18.7,11.5,19.2,22.3"/>
		<path class="st1" d="M57.3,226.2c-14.6-8.6-25.1-23-31.3-38.7s-8.3-32.8-8.8-49.7c10.7,4.7,19.1,13.5,26.2,22.8
			c9,11.8,16.4,24.8,21.4,38.8"/>
		<path class="st1" d="M24.5,183.2c-7-5.7-15.4-9.7-24.3-11.4c1.5,14.2,7.7,27.7,17.4,38.4c9.5,10.6,22.3,18.2,36.1,21.8"/>
		<path class="st1" d="M37.2,225.9c-5.8,0.2-11.6,1.6-16.9,4.1c1.6,2.1,4.1,3.3,6.5,4.3c7.9,3.4,16.4,5.9,25,5.4"/>
		<path class="st1" d="M51.8,172.7c0.6-20.5,5.8-40.8,14.9-59.2c0.9,3.4,1.8,6.8,2.7,10.2c1,3.9,2,7.9,2.9,11.9
			c1.2,5.8,1.9,11.8,2.4,17.7c0.5,5.7,0.9,11.2,0.8,17"/>
		<path class="st1" d="M75.1,158.6c1.9-5.1,4.6-9.8,8-14c0.5,6.9,0.4,13.3-0.8,20"/>
		<path class="st1" d="M142.8,202.3c8.8-15.6,22.1-28.7,37.8-37.3c-6.1,23.1-15.1,42.8-28.7,62.4"/>
		<path class="st1" d="M135.6,194.6c0.5-10.1,2.9-20.1,6.9-29.3c3.8,9.5,5.4,20,4.5,30.2"/>
		<path class="st1" d="M159.3,215.8c10.2-7.5,22.1-12.6,34.6-15c-8.8,10.4-15.7,17.5-26.9,25.1"/>
		<path class="st1" d="M147.1,185.6c2-5.3,5.2-10.1,9.2-14c-0.4,5.3-1.4,10.6-2.9,15.8"/>
		<path class="st1" d="M81.8,146.5l1.2-43.3l-16.3-8l2-6l14.1,2.7l0.6-16l4.8-0.7L90.8,86l6.8-7.1l3,2.9l-4,20.8l1,57.2"/>
		<path class="st1" d="M82.5,108.7c-5.3,7.1-14.6,0.6-18.3-5.1c-13.4,5.5-28.7-7.4-25.5-21.5c-21.9,3-25-25.4-6.6-33.7
			c2.5-7.3,0.5-16.1,4.5-23.2C49.3,3,57.7,24.8,75.8,6c7.9-8.1,19.7-6.9,28.3-0.7c14-1.2,36.9-0.3,36.6,18.3
			c-0.1,5.8-4.2,11.3-2.7,16.9c1.6,5.7,8.2,8.4,11.1,13.5c5.4,10-3.4,20.8-12.8,24.4c5.2,12.2-8.6,25.1-20.4,19.1
			c0.3,7.2-8.5,12-14.4,7.9c-0.6,2.3-2.6,4.1-4.8,3.4"/>
		<path class="st2" d="M161.8,90.3h77c-1.1-5-6.9-6.7-10.3-5.8c-1.9-0.2-2-2.9-2.5-4.7c-3.3-7.7-13.2-3.3-17.4,1.4
			c-2.4-6.6-9.1-14-16.4-11.1c-4,3.3-6.5,8.1-9.9,12c-3.8-4.7-9.8,0.5-11.6,4.7C167.6,85.4,163.3,87.2,161.8,90.3z"/>
		<path class="st2" d="M341.6,62.7h71.1c-2.5-1.2-5.4-3.7-7.9-4.1c-0.5-8.8-8.5-10.4-14.2-4.4c-3.9-28.3-25.1-11.8-33.4,4.4
			c-1-4.3-6.4-4.3-8.9-1.3C345.8,58.6,341.1,58.4,341.6,62.7z"/>
		<path class="st2" d="M258,28.1c-5.3,0.9-20.9,4-16.6-5.5c3.1-7,19.5-12.7,30-17c11.1-4.6,28.3-10.1,34.9,4.5
			c4.2,9.3,7,29.7-5.5,31.3"/>
		<path class="st3" d="M258,28.1c-5.3,0.9-20.9,4-16.6-5.5c3.1-7,19.5-12.7,30-17c11.1-4.6,28.3-10.1,34.9,4.5
			c4.2,9.3,7,29.7-5.5,31.3"/>
		<path class="st2" d="M415.7,128.4l-2.6,3.3l-31.2-5.9l-4.5-3.8l13.2-6L415.7,128.4z"/>
		<path class="st2" d="M428.1,128.2c13,0-7.3-11.7-22.2-11.7c0.8-3.7,8.3-2.4,8.4-4.3c-1.6-9-35.4,3.3-36.8,10.2"/>
		<path class="st3" d="M428.1,128.2c13,0-7.3-11.7-22.2-11.7c0.8-3.7,8.3-2.4,8.4-4.3c-1.6-9-35.4,3.3-36.8,10.2"/>
		<path class="st2" d="M423.8,131.2c11.8-1.1-2.9-8.9-13.1-9.7L423.8,131.2z"/>
		<path class="st3" d="M423.8,131.2c11.8-1.1-2.9-8.9-13.1-9.7"/>
		<path class="st2" d="M417.6,132.7c0,0,3.8,1.1,6-0.7c2.7-2.1-10-7.2-17-7.7"/>
		<path class="st3" d="M417.6,132.7c0,0,3.8,1.1,6-0.7c2.7-2.1-10-7.2-17-7.7"/>
		<path class="st2" d="M377.6,122.4l11,9c9.6-1.3,24.9,6.7,29.3,2.3c2.6-2.6-10.9-6-15.4-6.4"/>
		<path class="st3" d="M377.6,122.4l11,9c9.6-1.3,24.9,6.7,29.3,2.3c2.6-2.6-10.9-6-15.4-6.4"/>
		<path class="st2" d="M236.9,284v-91.7c-20-3.5-32.8-22.5-41.7-39l15.8-12.9c8.5,11.3,15.5,19.8,20.7,26.8
			c-3.4-41.7,2.2-88.2,57.1-90.6c70.5-3.1,58.7,85.6,58.7,85.6c8.6-7.4,27.7-41.8,27.7-41.8l14.4,12.1
			c-5.9,27.1-24.4,48.4-50.1,60.2V284"/>
		<path class="st3" d="M236.9,284v-91.7c-20-3.5-32.8-22.5-41.7-39l15.8-12.9c8.5,11.3,15.5,19.8,20.7,26.8
			c-3.4-41.7,2.2-88.2,57.1-90.6c70.5-3.1,58.7,85.6,58.7,85.6c8.6-7.4,27.7-41.8,27.7-41.8l14.4,12.1
			c-5.9,27.1-24.4,48.4-50.1,60.2V284"/>
		<path class="st4" d="M258.8,19.4c-0.1,12.3-7.5,38.1,3.7,44.8c6.7,4,15.8,2,23.5,1.2c0.2,3.9,0.4,7.7,0.7,11.5
			c2.7,4.7,10.4,5.4,12-0.1c-0.6-9.1-0.7-18.9-0.9-27.9c-0.1-0.6,0.2-1,0.8-1.1c7.4-2.6,8-15.5-1.5-7.7c-1.1-5.7,1.5-17.6-2-21.4
			C283.8,14.3,270.2,15.6,258.8,19.4z"/>
		<path class="st3" d="M263.5,31.1l0.5,12.5l9.4-2.2"/>
		<path class="st2" d="M171.6,147.6l2.7,3.3l31.1-6l4.5-3.7l-13.2-6.1L171.6,147.6z"/>
		<path class="st2" d="M159.1,147.3c-13,0,7.3-11.7,22.2-11.7c-0.8-3.7-8.3-2.4-8.4-4.3c1.6-9,35.4,3.3,36.8,10.2"/>
		<path class="st3" d="M159.1,147.3c-13,0,7.3-11.7,22.2-11.7c-0.8-3.7-8.3-2.4-8.4-4.3c1.6-9,35.4,3.3,36.8,10.2"/>
		<path class="st2" d="M163.3,150.4c-11.8-1.1,2.9-8.9,13.1-9.7L163.3,150.4z"/>
		<path class="st3" d="M163.3,150.4c-11.8-1.1,2.9-8.9,13.1-9.7"/>
		<path class="st2" d="M169.8,151.8c0,0-3.8,1.1-6-0.7c-2.7-2.1,10-7.2,17-7.7"/>
		<path class="st3" d="M169.8,151.8c0,0-3.8,1.1-6-0.7c-2.7-2.1,10-7.2,17-7.7"/>
		<path class="st2" d="M209.8,141.5l-11,9c-9.6-1.3-24.9,6.7-29.3,2.3c-2.6-2.6,10.9-6,15.4-6.4"/>
		<path class="st3" d="M209.8,141.5l-11,9c-9.6-1.3-24.9,6.7-29.3,2.3c-2.6-2.6,10.9-6,15.4-6.4"/>
		<path class="st5" d="M269.4,42.4l4-1l-0.9,5.8L269.4,42.4z"/>
		<path class="st5" d="M286,65.3l5.9-0.7l-5.6,5.3L286,65.3z"/>
		<path class="st5" d="M263.8,18.2c1.9,4.3,5.1,0.2,7.8,1.3c7,2.7,6.1-1,10.5,1.7c2,1.2,0.1,4.9,1.7,6.6c2.4,2.4,8.2-0.3,9.3,4.5
			c0.8,3.4-1.9,9.8,0.7,10.6c4.7,1.5,3.2-5.4,3.7-11.1c-0.1-4.3,0.4-9.4-2.2-13c-9.9-3.5-21.1-3.3-31.1-0.7
			C264.1,18,264.1,18,263.8,18.2z"/>
		<path class="st6" d="M258.2,26.4c-21.7,4.5-13.6-3.1,0.7-7L258.2,26.4z"/>
		<path class="st3" d="M258.2,26.4c-21.7,4.5-13.6-3.1,0.7-7"/>
		<path class="st5" d="M339.7,230.1H236.8V284h102.8V230.1z"/>
		<path class="st4" d="M339.7,221.1H236.8v9h102.8V221.1z"/>
		<path class="st3" d="M242.3,221.1v9.7"/>
		<path class="st3" d="M249.8,221.1v9.7"/>
		<path class="st3" d="M259.4,221.1v9.7"/>
		<path class="st3" d="M269,221.1v9.7"/>
		<path class="st3" d="M278,221.1v9.7"/>
		<path class="st3" d="M286.4,221.1v9.7"/>
		<path class="st3" d="M296.4,221.1v9.7"/>
		<path class="st3" d="M303.1,221.1v9.7"/>
		<path class="st3" d="M311.9,221.1v9.7"/>
		<path class="st3" d="M318.2,221.1v9.7"/>
		<path class="st3" d="M325.2,221.1v9.7"/>
		<path class="st3" d="M332.6,221.1v9.7"/>
		<path class="st3" d="M198.6,159.4l16.5-13.8"/>
		<path class="st3" d="M196.8,151.9l4.1,5.4"/>
		<path class="st3" d="M200.3,149.2l4.1,5.4"/>
		<path class="st3" d="M203.6,146.5l4.1,5.4"/>
		<path class="st3" d="M206.8,143.8l4,5.4"/>
		<path class="st3" d="M371.5,127.2l16.1,12.8"/>
		<path class="st3" d="M378,122.5l-3.7,6.9"/>
		<path class="st3" d="M381.2,125.4l-3.6,6.6"/>
		<path class="st3" d="M385,128.3l-3.5,6.5"/>
		<path class="st3" d="M388.4,131.1l-3.3,6.7"/>
		<path class="st3" d="M278.6,77.8c3.7,16.9,24.2,15.4,29.7,0.7"/>
		<path class="st3" d="M293.6,80.8l-0.1,9.1"/>
		<path class="st3" d="M289.6,80l-3.1,8.6"/>
		<path class="st3" d="M287.8,78.2l-6.7,5.5"/>
		<path class="st3" d="M298.4,77.8l8,4.5"/>
		<path class="st3" d="M296.6,79.7l5.4,7.1"/>
		<path class="st6" d="M236.8,191.2c-24.3-8.1-35.7-33.1-0.2-13.1c-0.1,0-0.1-0.1-0.2-0.1"/>
		<path class="st3" d="M236.9,192.3c-1-23.7,0-47.5,3.3-71"/>
		<path class="st6" d="M340,179.8c9.1-3.3,15.5-18.6,25.1-14.6c9.5,4-20.6,22.1-25.3,26"/>
		<path class="st3" d="M339.7,192.6c0-24.9,1.3-50-4.6-74.4"/>
		<path class="st7" d="M278.9,249.6l-0.3,34.8"/>
	</g>
</g>
</svg>
