<svg width="214" height="137" fill="none" xmlns="http://www.w3.org/2000/svg"><path d="M208.72 78.81c.39-.55.75-1.12 1.08-1.69.07-.12.14-.24.2-.36.34-.6.65-1.22.93-1.85.03-.06.05-.12.08-.18.28-.64.54-1.3.76-1.96.02-.04.03-.09.05-.13.22-.67.41-1.36.58-2.05.02-.1.05-.19.07-.29.15-.68.28-1.36.38-2.04l.03-.27c.09-.7.16-1.41.2-2.11.51-11.24-5.65-21.8-27.72-36.32C167.81 18 147.49 10.92 128.42 6.09 106.14.45 75.62-1.77 52.67 2.4 24.14 7.6 1.26 28.46 1.27 57.56c-.11 14.54 5.7 27.27 14.79 37.76 27.18 31.35 70.29 43.88 109.91 40.41 22.76-1.99 37.65-15.06 46.51-23.55 3.59-3.44 28.36-25.48 33.01-29.63l-.04-.05c.07-.07.13-.14.21-.21.49-.45.97-.92 1.42-1.41.05-.06.1-.11.15-.17.44-.5.85-1.02 1.24-1.55.08-.11.17-.22.25-.34v-.01zm-45.93 11.16c-42.87-1.02-82.29-18.7-106.81-43.01-5.31-5.26-15.2-18.88-8.35-28.2 5.14-6.97 17.82-6.39 25.1-5.31 42.81 6.36 77.88 36.57 90.05 76.44v.06l.01.02z" fill="#2F6DD5"/><path d="M162.79 89.97v-.07c-12.17-39.87-47.24-70.08-90.05-76.44-7.28-1.08-19.97-1.66-25.1 5.31-6.85 9.32 3.04 22.94 8.35 28.2 24.51 24.3 63.93 41.98 106.81 43.01l-.01-.01zm42.66-7.47.04.05c-4.65 4.14-29.42 26.19-33.01 29.63-8.87 8.49-23.76 21.57-46.51 23.55-39.61 3.47-82.73-9.06-109.91-40.41C6.97 84.83 1.16 72.1 1.27 57.56 1.26 28.45 24.15 7.6 52.67 2.4c22.96-4.17 53.47-1.95 75.75 3.69 19.07 4.82 39.39 11.91 56.94 23.47 22.07 14.52 28.23 25.08 27.72 36.32-.28 6.07-2.82 12.32-7.64 16.62h.01z" fill="url(#a)"/><path d="M47.64 18.77c5.14-6.97 17.82-6.39 25.1-5.31 42.81 6.36 77.88 36.57 90.05 76.44v.06c10.39.25 20.99-.48 31.63-2.34l.9-.15c2.86-.56 5.37-1.6 7.53-2.99 6.51-4.18 9.92-11.51 10.24-18.59.51-11.24-5.65-21.8-27.72-36.32-17.55-11.56-37.87-18.64-56.94-23.47-22.28-5.64-52.8-7.86-75.75-3.69" fill="url(#b)"/><defs><radialGradient id="a" cx="0" cy="0" r="1" gradientUnits="userSpaceOnUse" gradientTransform="matrix(-142.0005 -42.49956 33.2154 -110.98004 55.31 25.77)"><stop offset=".081" stop-color="#002460"/><stop offset=".667" stop-color="#2E6BD2" stop-opacity=".02"/><stop offset=".88" stop-color="#2F6DD5" stop-opacity="0"/></radialGradient><linearGradient id="b" x1="106.5" y1="12.3" x2="196.06" y2="101.85" gradientUnits="userSpaceOnUse"><stop stop-color="#376CD4" stop-opacity="0"/><stop offset=".22" stop-color="#2453AC" stop-opacity=".34"/><stop offset=".5" stop-color="#103982" stop-opacity=".7"/><stop offset=".73" stop-color="#042969" stop-opacity=".92"/><stop offset=".88" stop-color="#002460"/></linearGradient></defs></svg>