<svg width="264" height="150" viewBox="0 0 264 150" fill="none" xmlns="http://www.w3.org/2000/svg"><path d="M109.38 1.37H94.67c-.64 0-1.15.51-1.15 1.15V96c0 1.33-1.87 1.6-2.25.33L63.41 2.2c-.14-.49-.59-.82-1.1-.82H38.8c-.64 0-1.15.51-1.15 1.15v145.06c0 .64.51 1.15 1.15 1.15h14.71c.64 0 1.15-.51 1.15-1.15v-93.5c0-1.33 1.87-1.6 2.25-.33l27.87 94.14c.14.49.59.82 1.1.82h23.5c.64 0 1.15-.51 1.15-1.15V2.52c0-.64-.51-1.15-1.15-1.15zM21.24 1.37H3.06A2.25 2.25 0 0 0 .81 3.62v142.86a2.25 2.25 0 0 0 2.25 2.25h18.18a2.25 2.25 0 0 0 2.25-2.25V3.62a2.25 2.25 0 0 0-2.25-2.25z" fill="#2F6DD5"/><path fill-rule="evenodd" clip-rule="evenodd" d="M184.15 18.2c-3.3-9.79-12.56-16.83-23.46-16.83h-33.74c-1.24 0-2.25 1.01-2.25 2.25V146.5c0 1.24 1.01 2.25 2.25 2.25h18.18c1.24 0 2.25-1.01 2.25-2.25v-44.01a2.5 2.5 0 0 1 2.5-2.5h10.81c10.94 0 20.22-7.09 23.49-16.93 3.7-10.1 5.71-21 5.71-32.38a94.16 94.16 0 0 0-5.75-32.48h.01zm-19.78 63.48c-1.25 4.04-5.76 6.97-10.21 6.97h-4.52c-1.24 0-2.25-1.01-2.25-2.25V14.96c0-1.24 1.01-2.25 2.25-2.25h4.52c4.17 0 8.49 2.58 9.95 6.23 3.55 9.92 5.48 20.6 5.48 31.74 0 11.14-1.84 21.29-5.22 31z" fill="#2F6DD5"/><path d="M244.26 71.64c-7.23-7.54-23.98-25.12-27.3-33.05-3.35-7.97-2.53-15.46 1.11-20.35 2.99-4.01 9.03-6.34 15.13-4.26 5.25 1.8 11.57 7.34 12.92 23.43.04 1.08.9 2.19 2.32 2.19h7.15c1.11 0 2.25-.84 2.3-2.28.55-9.04-2.06-18.43-5.14-23.11-5.38-8.97-11.76-12.45-21.07-13.63-9.4-1.2-22.13 2.65-28.73 13.11-5.77 9.15-7.35 23.89-3.98 35.4 4.27 14.59 8.31 18.98 14.99 27.01 1.12 1.35 7.98 8.79 10.39 11.1 10.5 10.01 16.11 17.86 17.06 30.59.76 10.1-4.65 19.08-14.01 18.64-5.65-.26-8.48-2.22-12.3-6.31-3.83-4.1-5.33-9.28-6.09-17.74-.28-3.14-.08-8.48-.06-10.15 0-1.11-.87-2.25-2.25-2.25h-8.86c-1.36 0-2.26 1.13-2.26 2.25.05 6.45.24 13.18.9 17 2.14 12.35 4.37 16.17 11.02 22.92 5.53 4.62 12.03 7.56 20.4 7.56 16.63 0 29.02-9.85 33.7-24.51 1.72-5.4 2.28-11.12 1.89-16.77-1.22-17.47-11.22-28.41-19.24-36.79h.01z" fill="#2F6DD5"/></svg>